<?xml version="1.0" encoding="UTF-8"?>
<!DOCTYPE svg PUBLIC "-//W3C//DTD SVG 1.1//EN" "http://www.w3.org/Graphics/SVG/1.1/DTD/svg11.dtd">
<svg xmlns="http://www.w3.org/2000/svg" version="1.1" width="340px" height="304px" style="shape-rendering:geometricPrecision; text-rendering:geometricPrecision; image-rendering:optimizeQuality; fill-rule:evenodd; clip-rule:evenodd" xmlns:xlink="http://www.w3.org/1999/xlink">
<g><path style="opacity:1" fill="#fcfbfd" d="M 266.5,19.5 C 264.345,21.6174 263.345,24.284 263.5,27.5C 263.598,29.5529 262.931,31.2196 261.5,32.5C 259.13,35.4128 257.296,38.7462 256,42.5C 255.021,44.3203 253.521,45.487 251.5,46C 252.406,47.6995 252.739,49.5328 252.5,51.5C 246.907,53.1487 241.24,54.6487 235.5,56C 234.944,56.3826 234.611,56.8826 234.5,57.5C 233.167,57.8333 233.167,58.1667 234.5,58.5C 238.884,58.1744 243.217,58.5078 247.5,59.5C 243.036,66.6176 239.036,73.9509 235.5,81.5C 233.938,85.3918 231.605,88.7251 228.5,91.5C 226.1,93.2964 224.433,95.6298 223.5,98.5C 223.262,100.404 222.262,101.738 220.5,102.5C 216.7,104.963 214.033,108.296 212.5,112.5C 212.5,113.167 212.167,113.5 211.5,113.5C 209.184,114.422 207.517,116.089 206.5,118.5C 206.631,119.239 206.464,119.906 206,120.5C 203.154,122.915 200.32,125.249 197.5,127.5C 191.029,128.204 184.696,129.204 178.5,130.5C 177.791,131.404 176.791,131.737 175.5,131.5C 175.167,131.5 174.833,131.5 174.5,131.5C 174.167,131.5 173.833,131.5 173.5,131.5C 173.167,131.5 172.833,131.5 172.5,131.5C 172.167,131.5 171.833,131.5 171.5,131.5C 168.529,131.435 165.862,132.269 163.5,134C 170.833,134.333 178.167,134.667 185.5,135C 186.598,135.77 186.598,136.603 185.5,137.5C 185.167,138.5 184.5,139.167 183.5,139.5C 178.291,141.719 173.624,144.719 169.5,148.5C 169.158,149.338 168.492,149.672 167.5,149.5C 164.669,150.079 162.336,151.412 160.5,153.5C 157.66,155.915 154.327,157.248 150.5,157.5C 147.053,157.814 143.72,158.648 140.5,160C 138.549,161.734 137.549,163.901 137.5,166.5C 133.866,175.101 129.199,183.101 123.5,190.5C 123.833,190.833 124.167,191.167 124.5,191.5C 133.958,181.541 143.625,171.708 153.5,162C 158.947,160.11 164.28,157.943 169.5,155.5C 169.833,171.5 170.167,187.5 170.5,203.5C 170.661,219.982 170.161,236.315 169,252.5C 167.217,246.843 163.384,243.343 157.5,242C 126.129,237.837 94.4624,232.67 62.5,226.5C 62.2172,225.711 61.7172,225.044 61,224.5C 60.5,176.168 60.3333,127.834 60.5,79.5C 60.6107,78.8826 60.944,78.3826 61.5,78C 86.9708,80.2999 112.304,83.7999 137.5,88.5C 138.167,88.1667 138.833,87.8333 139.5,87.5C 142.172,88.5008 144.839,89.5008 147.5,90.5C 138.764,106.774 133.431,124.107 131.5,142.5C 131.608,143.442 131.941,144.275 132.5,145C 129.254,151.244 126.92,157.744 125.5,164.5C 124.566,165.568 124.232,166.901 124.5,168.5C 124.367,171.925 125.033,172.258 126.5,169.5C 127.674,168.486 128.34,167.153 128.5,165.5C 128.66,163.847 129.326,162.514 130.5,161.5C 132.562,159.59 134.062,157.257 135,154.5C 136.239,146.481 137.405,138.481 138.5,130.5C 138.5,130.167 138.5,129.833 138.5,129.5C 140.074,127.898 140.741,125.898 140.5,123.5C 144.205,118.441 146.538,112.774 147.5,106.5C 147.5,106.167 147.5,105.833 147.5,105.5C 149.754,104.585 151.754,103.252 153.5,101.5C 153.167,100.833 152.833,100.167 152.5,99.5C 154.511,95.478 156.511,91.478 158.5,87.5C 159.482,86.8592 160.482,86.1925 161.5,85.5C 162.762,88.1155 163.928,90.7821 165,93.5C 165.49,92.2068 165.657,90.8734 165.5,89.5C 166.117,89.3893 166.617,89.056 167,88.5C 167.497,85.854 167.664,83.1873 167.5,80.5C 167.5,80.1667 167.5,79.8333 167.5,79.5C 168.823,76.5428 170.157,73.5428 171.5,70.5C 173.34,66.9311 176.007,64.2644 179.5,62.5C 183.436,60.2343 186.769,57.2343 189.5,53.5C 191.466,52.5588 193.466,51.5588 195.5,50.5C 196.086,50.7093 196.586,51.0426 197,51.5C 198,49.1667 199.667,47.5 202,46.5C 202.413,49.2321 203.08,51.8987 204,54.5C 205.83,50.7143 207.163,46.7143 208,42.5C 209.102,41.051 210.269,39.7177 211.5,38.5C 212.514,37.3263 213.847,36.6596 215.5,36.5C 217.693,35.3195 220.026,34.3195 222.5,33.5C 223.298,33.0431 223.631,32.3764 223.5,31.5C 226.912,30.9579 229.912,29.6246 232.5,27.5C 238.295,26.2704 243.628,23.937 248.5,20.5C 250.857,20.6633 253.19,20.4966 255.5,20C 259.133,17.4283 263.133,16.0949 267.5,16C 266.663,17.0113 266.33,18.1779 266.5,19.5 Z M 126.5,169.5 C 125.033,172.258 124.367,171.925 124.5,168.5C 125.925,166.969 126.591,167.302 126.5,169.5 Z M 121.5,194.5 C 121.517,192.972 122.184,192.472 123.5,193C 122.956,193.717 122.289,194.217 121.5,194.5 Z M 121.5,194.5 C 121.539,195.756 121.039,196.756 120,197.5C 119.415,196.002 119.915,195.002 121.5,194.5 Z"/></g>
<g><path style="opacity:0.993" fill="#c8b8e5" d="M 266.5,19.5 C 266.33,18.1779 266.663,17.0113 267.5,16C 263.133,16.0949 259.133,17.4283 255.5,20C 253.19,20.4966 250.857,20.6633 248.5,20.5C 254.679,17.4942 261.179,15.1608 268,13.5C 268.738,15.8805 268.238,17.8805 266.5,19.5 Z"/></g>
<g><path style="opacity:0.929" fill="#c3b5e3" d="M 248.5,20.5 C 243.628,23.937 238.295,26.2704 232.5,27.5C 237.307,24.0995 242.64,21.7662 248.5,20.5 Z"/></g>
<g><path style="opacity:0.631" fill="#ab97dd" d="M 266.5,19.5 C 266.655,22.716 265.655,25.3826 263.5,27.5C 263.345,24.284 264.345,21.6174 266.5,19.5 Z"/></g>
<g><path style="opacity:0.275" fill="#9b86cb" d="M 232.5,27.5 C 229.912,29.6246 226.912,30.9579 223.5,31.5C 226.088,29.3754 229.088,28.0421 232.5,27.5 Z"/></g>
<g><path style="opacity:0.886" fill="#b4a2da" d="M 223.5,31.5 C 223.631,32.3764 223.298,33.0431 222.5,33.5C 220.026,34.3195 217.693,35.3195 215.5,36.5C 217.484,33.8361 220.151,32.1695 223.5,31.5 Z"/></g>
<g><path style="opacity:0.998" fill="#b8a9d8" d="M 261.5,32.5 C 259.25,39.3272 256.25,45.6605 252.5,51.5C 252.739,49.5328 252.406,47.6995 251.5,46C 253.521,45.487 255.021,44.3203 256,42.5C 257.296,38.7462 259.13,35.4128 261.5,32.5 Z"/></g>
<g><path style="opacity:0.671" fill="#c3b8e0" d="M 211.5,38.5 C 210.269,39.7177 209.102,41.051 208,42.5C 207.163,46.7143 205.83,50.7143 204,54.5C 203.08,51.8987 202.413,49.2321 202,46.5C 199.667,47.5 198,49.1667 197,51.5C 196.586,51.0426 196.086,50.7093 195.5,50.5C 193.466,51.5588 191.466,52.5588 189.5,53.5C 193.308,49.3344 197.808,46.0011 203,43.5C 203.308,44.3081 203.808,44.9747 204.5,45.5C 205.806,44.0878 206.64,42.4211 207,40.5C 208.33,39.4178 209.83,38.7512 211.5,38.5 Z"/></g>
<g><path style="opacity:0.655" fill="#9b89cb" d="M 252.5,51.5 C 248.952,53.8994 244.952,55.3994 240.5,56C 243.372,57.4514 246.372,57.6181 249.5,56.5C 246.116,65.6063 241.449,73.9397 235.5,81.5C 239.036,73.9509 243.036,66.6176 247.5,59.5C 243.217,58.5078 238.884,58.1744 234.5,58.5C 234.5,58.1667 234.5,57.8333 234.5,57.5C 234.611,56.8826 234.944,56.3826 235.5,56C 241.24,54.6487 246.907,53.1487 252.5,51.5 Z"/></g>
<g><path style="opacity:0.855" fill="#b4a2dc" d="M 189.5,53.5 C 186.769,57.2343 183.436,60.2343 179.5,62.5C 182.231,58.7657 185.564,55.7657 189.5,53.5 Z"/></g>
<g><path style="opacity:0.663" fill="#a691d3" d="M 171.5,70.5 C 170.157,73.5428 168.823,76.5428 167.5,79.5C 167.326,75.6402 168.659,72.6402 171.5,70.5 Z"/></g>
<g><path style="opacity:0.153" fill="#8a79bd" d="M 219.5,54.5 C 217.621,57.1148 215.288,59.2814 212.5,61C 211.167,61.3333 209.833,61.6667 208.5,62C 209.094,62.4643 209.761,62.631 210.5,62.5C 196.901,75.106 184.234,88.4394 172.5,102.5C 172.227,100.549 172.893,99.049 174.5,98C 174.272,97.6012 173.938,97.4346 173.5,97.5C 182.172,86.1635 191.839,75.8301 202.5,66.5C 205.185,62.8169 208.518,59.8169 212.5,57.5C 212.842,56.6618 213.508,56.3284 214.5,56.5C 214.833,57.8333 215.167,57.8333 215.5,56.5C 216.833,56.1667 216.833,55.8333 215.5,55.5C 225.507,47.0111 236.007,39.0111 247,31.5C 247.617,32.4491 247.451,33.2825 246.5,34C 237.072,40.3682 228.072,47.2016 219.5,54.5 Z"/></g>
<g><path style="opacity:1" fill="#fcfcfd" d="M 252.5,231.5 C 249.505,231.294 246.838,231.96 244.5,233.5C 226.211,236.133 208.211,238.966 190.5,242C 184.449,243.221 180.449,246.721 178.5,252.5C 177.502,219.004 177.168,185.337 177.5,151.5C 190.504,143.012 202.837,133.512 214.5,123C 224.224,110.189 233.891,96.8559 243.5,83C 245.473,82.5045 247.473,82.3379 249.5,82.5C 253.846,82.6657 258.179,82.499 262.5,82C 266.266,80.9709 269.933,79.8042 273.5,78.5C 277.78,77.4604 282.113,77.2938 286.5,78C 287.126,78.7504 287.626,79.5838 288,80.5C 288.667,128.167 288.667,175.833 288,223.5C 287.348,225.723 285.848,226.89 283.5,227C 272.991,229.048 262.657,230.548 252.5,231.5 Z"/></g>
<g><path style="opacity:0.997" fill="#d3c6e9" d="M 273.5,78.5 C 269.933,79.8042 266.266,80.9709 262.5,82C 258.179,82.499 253.846,82.6657 249.5,82.5C 257.302,80.7553 265.302,79.4219 273.5,78.5 Z"/></g>
<g><path style="opacity:0.749" fill="#b4a3dd" d="M 167.5,80.5 C 167.664,83.1873 167.497,85.854 167,88.5C 166.617,89.056 166.117,89.3893 165.5,89.5C 165.657,90.8734 165.49,92.2068 165,93.5C 163.928,90.7821 162.762,88.1155 161.5,85.5C 160.482,86.1925 159.482,86.8592 158.5,87.5C 159.031,85.4559 160.198,83.7893 162,82.5C 162.748,84.3325 163.748,85.9991 165,87.5C 165.902,85.0731 166.736,82.7397 167.5,80.5 Z"/></g>
<g><path style="opacity:1" fill="#f7f3fa" d="M 300.5,92.5 C 300.5,141.833 300.5,191.167 300.5,240.5C 300.423,241.75 299.756,242.583 298.5,243C 294.83,243.548 291.163,244.048 287.5,244.5C 283.958,244.187 280.625,244.521 277.5,245.5C 272.63,245.69 267.964,246.356 263.5,247.5C 263.167,247.5 262.833,247.5 262.5,247.5C 257.951,247.624 253.618,248.291 249.5,249.5C 249.167,249.5 248.833,249.5 248.5,249.5C 243.662,249.911 238.995,250.578 234.5,251.5C 229.523,253.413 224.523,254.08 219.5,253.5C 216.468,253.505 213.468,253.838 210.5,254.5C 208.97,254.64 207.97,255.307 207.5,256.5C 206.735,256.077 205.902,255.743 205,255.5C 200.808,256.923 196.642,258.423 192.5,260C 191.044,262.266 190.21,264.766 190,267.5C 189.292,268.381 188.458,269.047 187.5,269.5C 178.5,269.5 169.5,269.5 160.5,269.5C 159.504,269.586 158.671,269.252 158,268.5C 157.849,263.673 155.683,260.173 151.5,258C 148.308,257.803 145.308,256.97 142.5,255.5C 139.065,255.783 135.732,255.783 132.5,255.5C 130.664,254.972 128.997,254.306 127.5,253.5C 124.375,252.521 121.042,252.187 117.5,252.5C 111.015,252.134 104.682,251.134 98.5,249.5C 89.4971,247.038 80.1637,245.705 70.5,245.5C 69.1667,246.833 67.8333,246.833 66.5,245.5C 63.4115,244.215 60.0781,243.549 56.5,243.5C 53.0703,243.893 49.9036,243.227 47,241.5C 46.3333,191.833 46.3333,142.167 47,92.5C 49.6667,89.8333 52.3333,89.8333 55,92.5C 55.5,139.832 55.6667,187.165 55.5,234.5C 86.1646,238.619 116.831,242.785 147.5,247C 154.874,248.097 160.707,251.597 165,257.5C 165.483,258.448 165.649,259.448 165.5,260.5C 170.844,260.666 176.177,260.499 181.5,260C 184.322,253.844 188.989,249.844 195.5,248C 227.805,243.254 260.139,238.754 292.5,234.5C 292.333,187.165 292.5,139.832 293,92.5C 295.621,89.8598 298.121,89.8598 300.5,92.5 Z M 126.5,169.5 C 125.033,172.258 124.367,171.925 124.5,168.5C 125.925,166.969 126.591,167.302 126.5,169.5 Z M 121.5,194.5 C 122.289,194.217 122.956,193.717 123.5,193C 122.184,192.472 121.517,192.972 121.5,194.5 Z M 121.5,194.5 C 119.915,195.002 119.415,196.002 120,197.5C 121.039,196.756 121.539,195.756 121.5,194.5 Z"/></g>
<g><path style="opacity:0.48" fill="#9587c4" d="M 300.5,92.5 C 301.268,93.2625 301.768,94.2625 302,95.5C 302.667,142.5 302.667,189.5 302,236.5C 301.79,238.058 301.29,239.391 300.5,240.5C 300.5,191.167 300.5,141.833 300.5,92.5 Z"/></g>
<g><path style="opacity:0.756" fill="#dacdf7" d="M 60.5,79.5 C 60.3333,127.834 60.5,176.168 61,224.5C 61.7172,225.044 62.2172,225.711 62.5,226.5C 60.4362,226.238 59.1029,225.071 58.5,223C 59.1643,175.069 59.831,127.236 60.5,79.5 Z"/></g>
<g><path style="opacity:0.063" fill="#9c8bca" d="M 228.5,91.5 C 227.567,94.3702 225.9,96.7036 223.5,98.5C 224.433,95.6298 226.1,93.2964 228.5,91.5 Z"/></g>
<g><path style="opacity:1" fill="#c5b7e2" d="M 158.5,87.5 C 156.511,91.478 154.511,95.478 152.5,99.5C 152.833,100.167 153.167,100.833 153.5,101.5C 151.754,103.252 149.754,104.585 147.5,105.5C 150.153,98.8572 153.82,92.8572 158.5,87.5 Z"/></g>
<g><path style="opacity:0.318" fill="#a394cf" d="M 220.5,102.5 C 218.312,106.207 215.645,109.54 212.5,112.5C 214.033,108.296 216.7,104.963 220.5,102.5 Z"/></g>
<g><path style="opacity:1" fill="#c8bbe6" d="M 147.5,106.5 C 146.538,112.774 144.205,118.441 140.5,123.5C 141.882,117.331 144.216,111.664 147.5,106.5 Z"/></g>
<g><path style="opacity:0.02" fill="#8a7eb7" d="M 171.5,100.5 C 171.328,101.492 171.662,102.158 172.5,102.5C 171.833,103.833 170.833,104.833 169.5,105.5C 164.488,112.205 159.488,118.872 154.5,125.5C 154.167,125.5 153.833,125.5 153.5,125.5C 154.324,122.685 155.991,120.518 158.5,119C 158.272,118.601 157.938,118.435 157.5,118.5C 159.371,116.187 161.371,114.02 163.5,112C 163.272,111.601 162.938,111.435 162.5,111.5C 165.205,107.474 168.205,103.808 171.5,100.5 Z"/></g>
<g><path style="opacity:0.012" fill="#8b80c6" d="M 211.5,113.5 C 210.483,115.911 208.816,117.578 206.5,118.5C 207.517,116.089 209.184,114.422 211.5,113.5 Z"/></g>
<g><path style="opacity:0.384" fill="#9e8dcf" d="M 140.5,123.5 C 140.741,125.898 140.074,127.898 138.5,129.5C 138.259,127.102 138.926,125.102 140.5,123.5 Z"/></g>
<g><path style="opacity:0.243" fill="#a691db" d="M 197.5,127.5 C 196.051,129.164 194.051,129.998 191.5,130C 188.11,130.246 184.777,130.746 181.5,131.5C 180.583,130.873 179.583,130.539 178.5,130.5C 184.696,129.204 191.029,128.204 197.5,127.5 Z"/></g>
<g><path style="opacity:0.514" fill="#b8b4cb" d="M 153.5,125.5 C 153.833,125.5 154.167,125.5 154.5,125.5C 152.185,130.118 149.352,134.451 146,138.5C 147.248,135.307 148.581,131.974 150,128.5C 151.039,127.29 152.206,126.29 153.5,125.5 Z"/></g>
<g><path style="opacity:0.343" fill="#aa99d2" d="M 171.5,131.5 C 171.833,132.833 172.167,132.833 172.5,131.5C 172.833,131.5 173.167,131.5 173.5,131.5C 173.833,132.833 174.167,132.833 174.5,131.5C 174.833,131.5 175.167,131.5 175.5,131.5C 179.946,132.893 184.612,133.893 189.5,134.5C 188.717,136.288 187.384,137.288 185.5,137.5C 186.598,136.603 186.598,135.77 185.5,135C 178.167,134.667 170.833,134.333 163.5,134C 165.862,132.269 168.529,131.435 171.5,131.5 Z"/></g>
<g><path style="opacity:0.188" fill="#a794d6" d="M 183.5,139.5 C 179.521,143.494 174.855,146.494 169.5,148.5C 173.624,144.719 178.291,141.719 183.5,139.5 Z"/></g>
<g><path style="opacity:0.441" fill="#b5a5dc" d="M 138.5,130.5 C 137.405,138.481 136.239,146.481 135,154.5C 134.062,157.257 132.562,159.59 130.5,161.5C 131.437,158.731 132.604,156.064 134,153.5C 134.307,145.468 135.807,137.801 138.5,130.5 Z"/></g>
<g><path style="opacity:0.047" fill="#9d86cd" d="M 167.5,149.5 C 165.664,151.588 163.331,152.921 160.5,153.5C 162.336,151.412 164.669,150.079 167.5,149.5 Z"/></g>
<g><path style="opacity:0.09" fill="#a092cd" d="M 150.5,157.5 C 147.664,158.975 144.664,160.309 141.5,161.5C 140.388,163.419 139.054,165.086 137.5,166.5C 137.549,163.901 138.549,161.734 140.5,160C 143.72,158.648 147.053,157.814 150.5,157.5 Z"/></g>
<g><path style="opacity:0.42" fill="#9783cf" d="M 125.5,164.5 C 125.804,166.796 126.804,167.129 128.5,165.5C 128.34,167.153 127.674,168.486 126.5,169.5C 126.591,167.302 125.925,166.969 124.5,168.5C 124.232,166.901 124.566,165.568 125.5,164.5 Z"/></g>
<g><path style="opacity:0.49" fill="#b6a6e3" d="M 177.5,151.5 C 177.168,185.337 177.502,219.004 178.5,252.5C 178.819,254.75 178.319,256.75 177,258.5C 176.169,222.664 176.336,186.998 177.5,151.5 Z"/></g>
<g><path style="opacity:0.09" fill="#836cc4" d="M 252.5,231.5 C 250.095,232.768 247.428,233.435 244.5,233.5C 246.838,231.96 249.505,231.294 252.5,231.5 Z"/></g>
<g><path style="opacity:0.145" fill="#9582bb" d="M 56.5,243.5 C 60.0781,243.549 63.4115,244.215 66.5,245.5C 62.8405,245.841 59.5072,245.175 56.5,243.5 Z"/></g>
<g><path style="opacity:0.212" fill="#8f7bc5" d="M 277.5,245.5 C 280.625,244.521 283.958,244.187 287.5,244.5C 284.977,245.254 282.311,245.92 279.5,246.5C 278.817,246.137 278.15,245.804 277.5,245.5 Z"/></g>
<g><path style="opacity:0.012" fill="#8978bf" d="M 277.5,245.5 C 273.739,246.984 269.739,247.984 265.5,248.5C 264.817,248.137 264.15,247.804 263.5,247.5C 267.964,246.356 272.63,245.69 277.5,245.5 Z"/></g>
<g><path style="opacity:0.624" fill="#ad98d8" d="M 70.5,245.5 C 80.1637,245.705 89.4971,247.038 98.5,249.5C 97.8826,249.611 97.3826,249.944 97,250.5C 92.5691,249.933 88.2358,248.933 84,247.5C 80.801,247.554 77.6343,247.554 74.5,247.5C 72.9745,247.006 71.6412,246.339 70.5,245.5 Z"/></g>
<g><path style="opacity:0.388" fill="#a08bcc" d="M 262.5,247.5 C 258.739,248.984 254.739,249.984 250.5,250.5C 249.893,250.376 249.56,250.043 249.5,249.5C 253.618,248.291 257.951,247.624 262.5,247.5 Z"/></g>
<g><path style="opacity:0.075" fill="#8f76c5" d="M 248.5,249.5 C 244.538,250.97 240.372,251.97 236,252.5C 235.617,251.944 235.117,251.611 234.5,251.5C 238.995,250.578 243.662,249.911 248.5,249.5 Z"/></g>
<g><path style="opacity:0.761" fill="#ad91d8" d="M 117.5,252.5 C 121.042,252.187 124.375,252.521 127.5,253.5C 126.883,253.611 126.383,253.944 126,254.5C 123.061,253.872 120.228,253.205 117.5,252.5 Z"/></g>
<g><path style="opacity:0.231" fill="#947fc3" d="M 219.5,253.5 C 215.709,254.984 211.709,255.984 207.5,256.5C 207.97,255.307 208.97,254.64 210.5,254.5C 213.468,253.838 216.468,253.505 219.5,253.5 Z"/></g>
<g><path style="opacity:0.467" fill="#9b83d0" d="M 168.5,257.5 C 169.251,256.427 170.251,256.26 171.5,257C 170.648,258.728 169.648,258.895 168.5,257.5 Z"/></g>
<g><path style="opacity:0.498" fill="#9989cf" d="M 160.5,269.5 C 169.5,269.5 178.5,269.5 187.5,269.5C 187.082,270.222 186.416,270.722 185.5,271C 177.833,271.667 170.167,271.667 162.5,271C 161.584,270.722 160.918,270.222 160.5,269.5 Z"/></g>
</svg>
